<svg width="673" height="144" viewBox="0 0 673 144" fill="none" xmlns="http://www.w3.org/2000/svg">
<g filter="url(#filter0_g_3027_42)">
<rect x="30.4055" y="40.7207" width="611.594" height="58.5738" fill="#0092A1"/>
</g>
<g filter="url(#filter1_g_3027_42)">
<path d="M63.828 84.2504C61.9917 84.2504 60.3463 83.9523 58.8916 83.3561C57.4369 82.7599 56.2683 81.8776 55.386 80.709C54.5275 79.5405 54.0744 78.1335 54.0267 76.488H60.537C60.6324 77.4181 60.9544 78.1335 61.5029 78.6343C62.0514 79.1113 62.7668 79.3497 63.6491 79.3497C64.5553 79.3497 65.2708 79.147 65.7954 78.7416C66.32 78.3124 66.5824 77.7281 66.5824 76.9888C66.5824 76.3688 66.3677 75.8561 65.9385 75.4507C65.5331 75.0453 65.0204 74.7114 64.4003 74.4491C63.8041 74.1868 62.9456 73.8887 61.8248 73.5548C60.2032 73.054 58.8796 72.5532 57.8542 72.0524C56.8288 71.5516 55.9464 70.8124 55.2071 69.8346C54.4679 68.8569 54.0982 67.581 54.0982 66.0071C54.0982 63.67 54.9448 61.8457 56.638 60.5341C58.3311 59.1986 60.537 58.5309 63.2557 58.5309C66.022 58.5309 68.2517 59.1986 69.9449 60.5341C71.638 61.8457 72.5442 63.682 72.6635 66.0429H66.0458C65.9981 65.232 65.7 64.6001 65.1515 64.147C64.603 63.67 63.8995 63.4316 63.041 63.4316C62.3018 63.4316 61.7056 63.6343 61.2525 64.0397C60.7994 64.4212 60.5728 64.9816 60.5728 65.7209C60.5728 66.5317 60.9544 67.1637 61.7175 67.6168C62.4806 68.0699 63.673 68.5588 65.2946 69.0834C66.9162 69.6319 68.2278 70.1565 69.2294 70.6573C70.2549 71.1581 71.1372 71.8855 71.8765 72.8394C72.6158 73.7933 72.9854 75.0214 72.9854 76.5238C72.9854 77.9547 72.6158 79.2544 71.8765 80.4229C71.1611 81.5914 70.1118 82.5215 68.7286 83.213C67.3455 83.9046 65.7119 84.2504 63.828 84.2504ZM86.8015 78.8132V84H83.6894C81.4716 84 79.7426 83.4634 78.5026 82.3903C77.2625 81.2933 76.6425 79.5167 76.6425 77.0604V69.1192H74.21V64.0397H76.6425V59.1748H82.7593V64.0397H86.7657V69.1192H82.7593V77.1319C82.7593 77.7281 82.9024 78.1574 83.1886 78.4197C83.4748 78.682 83.9517 78.8132 84.6194 78.8132H86.8015ZM87.9193 73.9841C87.9193 71.9332 88.3009 70.1327 89.064 68.5826C89.851 67.0325 90.9122 65.8402 92.2476 65.0055C93.5831 64.1708 95.0736 63.7535 96.719 63.7535C98.126 63.7535 99.3542 64.0397 100.403 64.612C101.477 65.1844 102.299 65.9355 102.872 66.8656V64.0397H108.989V84H102.872V81.1741C102.276 82.1041 101.441 82.8553 100.368 83.4277C99.3184 84 98.0903 84.2862 96.6833 84.2862C95.0616 84.2862 93.5831 83.8688 92.2476 83.0342C90.9122 82.1757 89.851 80.9714 89.064 79.4213C88.3009 77.8474 87.9193 76.0349 87.9193 73.9841ZM102.872 74.0198C102.872 72.4936 102.442 71.2893 101.584 70.4069C100.749 69.5246 99.7238 69.0834 98.5076 69.0834C97.2914 69.0834 96.254 69.5246 95.3955 70.4069C94.5608 71.2655 94.1435 72.4578 94.1435 73.9841C94.1435 75.5103 94.5608 76.7265 95.3955 77.6327C96.254 78.5151 97.2914 78.9563 98.5076 78.9563C99.7238 78.9563 100.749 78.5151 101.584 77.6327C102.442 76.7504 102.872 75.5461 102.872 74.0198ZM132.73 64.0397L120.21 93.4794H113.628L118.207 83.3203L110.087 64.0397H116.919L121.534 76.5238L126.113 64.0397H132.73ZM156.008 79.5644H146.636L145.134 84H138.731L147.817 58.8886H154.899L163.985 84H157.511L156.008 79.5644ZM154.434 74.8426L151.322 65.6494L148.246 74.8426H154.434ZM171.794 66.8656C172.367 65.9355 173.189 65.1844 174.263 64.612C175.336 64.0397 176.564 63.7535 177.947 63.7535C179.593 63.7535 181.083 64.1708 182.418 65.0055C183.754 65.8402 184.803 67.0325 185.566 68.5826C186.353 70.1327 186.747 71.9332 186.747 73.9841C186.747 76.0349 186.353 77.8474 185.566 79.4213C184.803 80.9714 183.754 82.1757 182.418 83.0342C181.083 83.8688 179.593 84.2862 177.947 84.2862C176.54 84.2862 175.312 84.0119 174.263 83.4634C173.213 82.8911 172.391 82.1399 171.794 81.2098V84H165.678V57.5293H171.794V66.8656ZM180.523 73.9841C180.523 72.4578 180.093 71.2655 179.235 70.4069C178.4 69.5246 177.363 69.0834 176.123 69.0834C174.906 69.0834 173.869 69.5246 173.011 70.4069C172.176 71.2893 171.759 72.4936 171.759 74.0198C171.759 75.5461 172.176 76.7504 173.011 77.6327C173.869 78.5151 174.906 78.9563 176.123 78.9563C177.339 78.9563 178.376 78.5151 179.235 77.6327C180.093 76.7265 180.523 75.5103 180.523 73.9841ZM197.003 84.2862C195.262 84.2862 193.712 83.9881 192.352 83.3919C190.993 82.7957 189.92 81.9849 189.133 80.9594C188.346 79.9102 187.905 78.7416 187.81 77.4539H193.855C193.926 78.1454 194.248 78.7059 194.821 79.1351C195.393 79.5644 196.097 79.779 196.931 79.779C197.694 79.779 198.279 79.6359 198.684 79.3497C199.113 79.0397 199.328 78.6462 199.328 78.1693C199.328 77.597 199.03 77.1796 198.434 76.9173C197.837 76.6311 196.872 76.3211 195.536 75.9873C194.105 75.6534 192.913 75.3076 191.959 74.9499C191.005 74.5683 190.182 73.9841 189.491 73.1971C188.799 72.3863 188.453 71.3012 188.453 69.9419C188.453 68.7972 188.763 67.7599 189.383 66.8298C190.027 65.8759 190.957 65.1247 192.174 64.5762C193.414 64.0277 194.88 63.7535 196.573 63.7535C199.077 63.7535 201.045 64.3735 202.476 65.6136C203.93 66.8537 204.765 68.4991 204.98 70.55H199.328C199.232 69.8585 198.922 69.31 198.398 68.9046C197.897 68.4991 197.229 68.2964 196.395 68.2964C195.679 68.2964 195.131 68.4395 194.749 68.7257C194.368 68.988 194.177 69.3577 194.177 69.8346C194.177 70.4069 194.475 70.8362 195.071 71.1224C195.691 71.4085 196.645 71.6947 197.933 71.9809C199.411 72.3624 200.616 72.744 201.546 73.1256C202.476 73.4833 203.287 74.0795 203.978 74.9141C204.694 75.7249 205.063 76.8219 205.087 78.2051C205.087 79.3736 204.753 80.4229 204.085 81.3529C203.442 82.2591 202.5 82.9746 201.26 83.4992C200.043 84.0238 198.624 84.2862 197.003 84.2862ZM216.842 84.2862C214.887 84.2862 213.122 83.8688 211.548 83.0342C209.998 82.1995 208.77 81.0071 207.864 79.4571C206.981 77.907 206.54 76.0946 206.54 74.0198C206.54 71.969 206.993 70.1685 207.899 68.6184C208.805 67.0445 210.046 65.8402 211.619 65.0055C213.193 64.1708 214.958 63.7535 216.914 63.7535C218.869 63.7535 220.634 64.1708 222.208 65.0055C223.782 65.8402 225.022 67.0445 225.928 68.6184C226.834 70.1685 227.287 71.969 227.287 74.0198C227.287 76.0707 226.822 77.8831 225.892 79.4571C224.986 81.0071 223.734 82.1995 222.136 83.0342C220.562 83.8688 218.798 84.2862 216.842 84.2862ZM216.842 78.992C218.011 78.992 219 78.5628 219.811 77.7043C220.646 76.8458 221.063 75.6176 221.063 74.0198C221.063 72.4221 220.658 71.1939 219.847 70.3354C219.06 69.4769 218.082 69.0476 216.914 69.0476C215.721 69.0476 214.732 69.4769 213.945 70.3354C213.158 71.1701 212.764 72.3982 212.764 74.0198C212.764 75.6176 213.146 76.8458 213.909 77.7043C214.696 78.5628 215.674 78.992 216.842 78.992ZM235.576 57.5293V84H229.459V57.5293H235.576ZM258.646 64.0397V84H252.529V81.2814C251.909 82.1637 251.062 82.8792 249.989 83.4277C248.94 83.9523 247.771 84.2146 246.484 84.2146C244.957 84.2146 243.61 83.8808 242.441 83.213C241.273 82.5215 240.367 81.5318 239.723 80.244C239.079 78.9563 238.757 77.4419 238.757 75.7011V64.0397H244.838V74.8783C244.838 76.2138 245.184 77.2512 245.875 77.9904C246.567 78.7297 247.497 79.0993 248.666 79.0993C249.858 79.0993 250.8 78.7297 251.492 77.9904C252.183 77.2512 252.529 76.2138 252.529 74.8783V64.0397H258.646ZM273.091 78.8132V84H269.979C267.761 84 266.032 83.4634 264.792 82.3903C263.552 81.2933 262.932 79.5167 262.932 77.0604V69.1192H260.5V64.0397H262.932V59.1748H269.049V64.0397H273.055V69.1192H269.049V77.1319C269.049 77.7281 269.192 78.1574 269.478 78.4197C269.764 78.682 270.241 78.8132 270.909 78.8132H273.091ZM294.241 73.6979C294.241 74.2702 294.205 74.8664 294.134 75.4865H280.29C280.385 76.7265 280.779 77.6804 281.471 78.3482C282.186 78.992 283.056 79.314 284.082 79.314C285.608 79.314 286.669 78.6701 287.265 77.3823H293.776C293.442 78.6939 292.834 79.8744 291.952 80.9237C291.093 81.973 290.008 82.7957 288.696 83.3919C287.385 83.9881 285.918 84.2862 284.296 84.2862C282.341 84.2862 280.6 83.8688 279.074 83.0342C277.548 82.1995 276.355 81.0071 275.497 79.4571C274.638 77.907 274.209 76.0946 274.209 74.0198C274.209 71.9451 274.626 70.1327 275.461 68.5826C276.32 67.0325 277.512 65.8402 279.038 65.0055C280.564 64.1708 282.317 63.7535 284.296 63.7535C286.228 63.7535 287.945 64.1589 289.448 64.9697C290.95 65.7805 292.118 66.9371 292.953 68.4395C293.812 69.9419 294.241 71.6947 294.241 73.6979ZM287.981 72.0882C287.981 71.0389 287.623 70.2042 286.908 69.5842C286.192 68.9642 285.298 68.6542 284.225 68.6542C283.2 68.6542 282.329 68.9523 281.614 69.5484C280.922 70.1446 280.493 70.9912 280.326 72.0882H287.981ZM311.988 84.2504C310.152 84.2504 308.506 83.9523 307.051 83.3561C305.597 82.7599 304.428 81.8776 303.546 80.709C302.687 79.5405 302.234 78.1335 302.187 76.488H308.697C308.792 77.4181 309.114 78.1335 309.663 78.6343C310.211 79.1113 310.927 79.3497 311.809 79.3497C312.715 79.3497 313.431 79.147 313.955 78.7416C314.48 78.3124 314.742 77.7281 314.742 76.9888C314.742 76.3688 314.528 75.8561 314.098 75.4507C313.693 75.0453 313.18 74.7114 312.56 74.4491C311.964 74.1868 311.106 73.8887 309.985 73.5548C308.363 73.054 307.04 72.5532 306.014 72.0524C304.989 71.5516 304.106 70.8124 303.367 69.8346C302.628 68.8569 302.258 67.581 302.258 66.0071C302.258 63.67 303.105 61.8457 304.798 60.5341C306.491 59.1986 308.697 58.5309 311.416 58.5309C314.182 58.5309 316.412 59.1986 318.105 60.5341C319.798 61.8457 320.704 63.682 320.823 66.0429H314.206C314.158 65.232 313.86 64.6001 313.311 64.147C312.763 63.67 312.059 63.4316 311.201 63.4316C310.462 63.4316 309.865 63.6343 309.412 64.0397C308.959 64.4212 308.733 64.9816 308.733 65.7209C308.733 66.5317 309.114 67.1637 309.877 67.6168C310.64 68.0699 311.833 68.5588 313.454 69.0834C315.076 69.6319 316.388 70.1565 317.389 70.6573C318.415 71.1581 319.297 71.8855 320.036 72.8394C320.776 73.7933 321.145 75.0214 321.145 76.5238C321.145 77.9547 320.776 79.2544 320.036 80.4229C319.321 81.5914 318.272 82.5215 316.889 83.213C315.505 83.9046 313.872 84.2504 311.988 84.2504ZM322.62 74.0198C322.62 71.9451 323.038 70.1327 323.872 68.5826C324.731 67.0325 325.911 65.8402 327.414 65.0055C328.94 64.1708 330.681 63.7535 332.636 63.7535C335.14 63.7535 337.227 64.4093 338.896 65.7209C340.589 67.0325 341.698 68.8807 342.223 71.2655H335.713C335.164 69.7392 334.103 68.9761 332.529 68.9761C331.408 68.9761 330.514 69.4173 329.846 70.2996C329.178 71.1581 328.844 72.3982 328.844 74.0198C328.844 75.6415 329.178 76.8935 329.846 77.7758C330.514 78.6343 331.408 79.0636 332.529 79.0636C334.103 79.0636 335.164 78.3005 335.713 76.7742H342.223C341.698 79.1113 340.589 80.9475 338.896 82.283C337.203 83.6184 335.116 84.2862 332.636 84.2862C330.681 84.2862 328.94 83.8688 327.414 83.0342C325.911 82.1995 324.731 81.0071 323.872 79.4571C323.038 77.907 322.62 76.0946 322.62 74.0198ZM347.498 61.9649C346.425 61.9649 345.543 61.6549 344.851 61.0349C344.183 60.391 343.849 59.604 343.849 58.674C343.849 57.7201 344.183 56.9331 344.851 56.3131C345.543 55.6692 346.425 55.3473 347.498 55.3473C348.547 55.3473 349.406 55.6692 350.074 56.3131C350.765 56.9331 351.111 57.7201 351.111 58.674C351.111 59.604 350.765 60.391 350.074 61.0349C349.406 61.6549 348.547 61.9649 347.498 61.9649ZM350.539 64.0397V84H344.422V64.0397H350.539ZM372.714 73.6979C372.714 74.2702 372.678 74.8664 372.607 75.4865H358.763C358.859 76.7265 359.252 77.6804 359.944 78.3482C360.659 78.992 361.529 79.314 362.555 79.314C364.081 79.314 365.142 78.6701 365.739 77.3823H372.249C371.915 78.6939 371.307 79.8744 370.425 80.9237C369.566 81.973 368.481 82.7957 367.169 83.3919C365.858 83.9881 364.391 84.2862 362.77 84.2862C360.814 84.2862 359.073 83.8688 357.547 83.0342C356.021 82.1995 354.828 81.0071 353.97 79.4571C353.111 77.907 352.682 76.0946 352.682 74.0198C352.682 71.9451 353.099 70.1327 353.934 68.5826C354.793 67.0325 355.985 65.8402 357.511 65.0055C359.037 64.1708 360.79 63.7535 362.77 63.7535C364.701 63.7535 366.418 64.1589 367.921 64.9697C369.423 65.7805 370.591 66.9371 371.426 68.4395C372.285 69.9419 372.714 71.6947 372.714 73.6979ZM366.454 72.0882C366.454 71.0389 366.096 70.2042 365.381 69.5842C364.665 68.9642 363.771 68.6542 362.698 68.6542C361.673 68.6542 360.802 68.9523 360.087 69.5484C359.395 70.1446 358.966 70.9912 358.799 72.0882H366.454ZM387.03 63.825C389.367 63.825 391.227 64.5882 392.61 66.1144C394.017 67.6168 394.721 69.6915 394.721 72.3386V84H388.64V73.1613C388.64 71.8259 388.294 70.7885 387.602 70.0492C386.911 69.31 385.981 68.9403 384.812 68.9403C383.644 68.9403 382.714 69.31 382.022 70.0492C381.33 70.7885 380.985 71.8259 380.985 73.1613V84H374.868V64.0397H380.985V66.6867C381.605 65.8044 382.439 65.1128 383.489 64.612C384.538 64.0874 385.718 63.825 387.03 63.825ZM409.023 78.8132V84H405.911C403.693 84 401.964 83.4634 400.724 82.3903C399.484 81.2933 398.864 79.5167 398.864 77.0604V69.1192H396.432V64.0397H398.864V59.1748H404.981V64.0397H408.987V69.1192H404.981V77.1319C404.981 77.7281 405.124 78.1574 405.41 78.4197C405.696 78.682 406.173 78.8132 406.841 78.8132H409.023ZM414.433 61.9649C413.36 61.9649 412.478 61.6549 411.786 61.0349C411.119 60.391 410.785 59.604 410.785 58.674C410.785 57.7201 411.119 56.9331 411.786 56.3131C412.478 55.6692 413.36 55.3473 414.433 55.3473C415.483 55.3473 416.341 55.6692 417.009 56.3131C417.701 56.9331 418.046 57.7201 418.046 58.674C418.046 59.604 417.701 60.391 417.009 61.0349C416.341 61.6549 415.483 61.9649 414.433 61.9649ZM417.474 64.0397V84H411.357V64.0397H417.474ZM430.85 69.1192H427.559V84H421.442V69.1192H419.224V64.0397H421.442V63.4673C421.442 61.011 422.145 59.1509 423.552 57.887C424.959 56.5993 427.022 55.9554 429.741 55.9554C430.194 55.9554 430.528 55.9673 430.742 55.9912V61.178C429.574 61.1064 428.751 61.2734 428.274 61.6788C427.797 62.0842 427.559 62.8115 427.559 63.8608V64.0397H430.85V69.1192ZM435.727 61.9649C434.654 61.9649 433.772 61.6549 433.08 61.0349C432.412 60.391 432.078 59.604 432.078 58.674C432.078 57.7201 432.412 56.9331 433.08 56.3131C433.772 55.6692 434.654 55.3473 435.727 55.3473C436.776 55.3473 437.635 55.6692 438.303 56.3131C438.994 56.9331 439.34 57.7201 439.34 58.674C439.34 59.604 438.994 60.391 438.303 61.0349C437.635 61.6549 436.776 61.9649 435.727 61.9649ZM438.768 64.0397V84H432.651V64.0397H438.768ZM440.911 74.0198C440.911 71.9451 441.328 70.1327 442.163 68.5826C443.022 67.0325 444.202 65.8402 445.704 65.0055C447.231 64.1708 448.972 63.7535 450.927 63.7535C453.431 63.7535 455.518 64.4093 457.187 65.7209C458.88 67.0325 459.989 68.8807 460.514 71.2655H454.003C453.455 69.7392 452.394 68.9761 450.82 68.9761C449.699 68.9761 448.805 69.4173 448.137 70.2996C447.469 71.1581 447.135 72.3982 447.135 74.0198C447.135 75.6415 447.469 76.8935 448.137 77.7758C448.805 78.6343 449.699 79.0636 450.82 79.0636C452.394 79.0636 453.455 78.3005 454.003 76.7742H460.514C459.989 79.1113 458.88 80.9475 457.187 82.283C455.494 83.6184 453.407 84.2862 450.927 84.2862C448.972 84.2862 447.231 83.8688 445.704 83.0342C444.202 82.1995 443.022 81.0071 442.163 79.4571C441.328 77.907 440.911 76.0946 440.911 74.0198ZM468.182 71.4085C468.182 68.9284 468.719 66.7225 469.792 64.7909C470.865 62.8354 472.356 61.3211 474.264 60.2479C476.195 59.1509 478.377 58.6025 480.81 58.6025C483.791 58.6025 486.342 59.3894 488.465 60.9633C490.587 62.5373 492.006 64.6836 492.722 67.4022H485.997C485.496 66.3529 484.78 65.554 483.85 65.0055C482.944 64.457 481.907 64.1828 480.738 64.1828C478.854 64.1828 477.328 64.8386 476.159 66.1502C474.991 67.4618 474.407 69.2146 474.407 71.4085C474.407 73.6025 474.991 75.3553 476.159 76.6669C477.328 77.9785 478.854 78.6343 480.738 78.6343C481.907 78.6343 482.944 78.3601 483.85 77.8116C484.78 77.2631 485.496 76.4642 485.997 75.4149H492.722C492.006 78.1335 490.587 80.2798 488.465 81.8537C486.342 83.4038 483.791 84.1789 480.81 84.1789C478.377 84.1789 476.195 83.6423 474.264 82.5692C472.356 81.4722 470.865 79.9579 469.792 78.0262C468.719 76.0946 468.182 73.8887 468.182 71.4085ZM498.471 61.9649C497.397 61.9649 496.515 61.6549 495.824 61.0349C495.156 60.391 494.822 59.604 494.822 58.674C494.822 57.7201 495.156 56.9331 495.824 56.3131C496.515 55.6692 497.397 55.3473 498.471 55.3473C499.52 55.3473 500.378 55.6692 501.046 56.3131C501.738 56.9331 502.084 57.7201 502.084 58.674C502.084 59.604 501.738 60.391 501.046 61.0349C500.378 61.6549 499.52 61.9649 498.471 61.9649ZM501.511 64.0397V84H495.394V64.0397H501.511ZM517.033 63.825C519.37 63.825 521.23 64.5882 522.613 66.1144C524.02 67.6168 524.724 69.6915 524.724 72.3386V84H518.643V73.1613C518.643 71.8259 518.297 70.7885 517.605 70.0492C516.914 69.31 515.984 68.9403 514.815 68.9403C513.647 68.9403 512.717 69.31 512.025 70.0492C511.334 70.7885 510.988 71.8259 510.988 73.1613V84H504.871V64.0397H510.988V66.6867C511.608 65.8044 512.442 65.1128 513.492 64.612C514.541 64.0874 515.721 63.825 517.033 63.825ZM546.717 73.6979C546.717 74.2702 546.681 74.8664 546.61 75.4865H532.766C532.862 76.7265 533.255 77.6804 533.947 78.3482C534.662 78.992 535.533 79.314 536.558 79.314C538.084 79.314 539.145 78.6701 539.742 77.3823H546.252C545.918 78.6939 545.31 79.8744 544.428 80.9237C543.569 81.973 542.484 82.7957 541.172 83.3919C539.861 83.9881 538.394 84.2862 536.773 84.2862C534.817 84.2862 533.076 83.8688 531.55 83.0342C530.024 82.1995 528.831 81.0071 527.973 79.4571C527.114 77.907 526.685 76.0946 526.685 74.0198C526.685 71.9451 527.102 70.1327 527.937 68.5826C528.796 67.0325 529.988 65.8402 531.514 65.0055C533.041 64.1708 534.793 63.7535 536.773 63.7535C538.704 63.7535 540.421 64.1589 541.924 64.9697C543.426 65.7805 544.595 66.9371 545.429 68.4395C546.288 69.9419 546.717 71.6947 546.717 73.6979ZM540.457 72.0882C540.457 71.0389 540.099 70.2042 539.384 69.5842C538.669 68.9642 537.774 68.6542 536.701 68.6542C535.676 68.6542 534.805 68.9523 534.09 69.5484C533.398 70.1446 532.969 70.9912 532.802 72.0882H540.457ZM574.34 63.825C576.82 63.825 578.788 64.5762 580.242 66.0786C581.721 67.581 582.46 69.6677 582.46 72.3386V84H576.379V73.1613C576.379 71.8736 576.033 70.8839 575.342 70.1923C574.674 69.4769 573.744 69.1192 572.551 69.1192C571.359 69.1192 570.417 69.4769 569.725 70.1923C569.058 70.8839 568.724 71.8736 568.724 73.1613V84H562.643V73.1613C562.643 71.8736 562.297 70.8839 561.605 70.1923C560.938 69.4769 560.008 69.1192 558.815 69.1192C557.623 69.1192 556.681 69.4769 555.989 70.1923C555.322 70.8839 554.988 71.8736 554.988 73.1613V84H548.871V64.0397H554.988V66.5437C555.608 65.709 556.419 65.0532 557.42 64.5762C558.422 64.0754 559.555 63.825 560.818 63.825C562.321 63.825 563.656 64.147 564.825 64.7909C566.017 65.4347 566.947 66.3529 567.615 67.5453C568.307 66.4483 569.249 65.554 570.441 64.8624C571.633 64.1708 572.933 63.825 574.34 63.825ZM584.449 73.9841C584.449 71.9332 584.83 70.1327 585.593 68.5826C586.38 67.0325 587.442 65.8402 588.777 65.0055C590.112 64.1708 591.603 63.7535 593.248 63.7535C594.655 63.7535 595.884 64.0397 596.933 64.612C598.006 65.1844 598.829 65.9355 599.401 66.8656V64.0397H605.518V84H599.401V81.1741C598.805 82.1041 597.97 82.8553 596.897 83.4277C595.848 84 594.62 84.2862 593.213 84.2862C591.591 84.2862 590.112 83.8688 588.777 83.0342C587.442 82.1757 586.38 80.9714 585.593 79.4213C584.83 77.8474 584.449 76.0349 584.449 73.9841ZM599.401 74.0198C599.401 72.4936 598.972 71.2893 598.113 70.4069C597.279 69.5246 596.253 69.0834 595.037 69.0834C593.821 69.0834 592.783 69.5246 591.925 70.4069C591.09 71.2655 590.673 72.4578 590.673 73.9841C590.673 75.5103 591.09 76.7265 591.925 77.6327C592.783 78.5151 593.821 78.9563 595.037 78.9563C596.253 78.9563 597.279 78.5151 598.113 77.6327C598.972 76.7504 599.401 75.5461 599.401 74.0198ZM616.919 57.9943L616.203 75.1287H611.016L610.301 57.9943H616.919ZM613.699 84.2862C612.626 84.2862 611.744 83.9762 611.052 83.3561C610.384 82.7122 610.05 81.9253 610.05 80.9952C610.05 80.0413 610.384 79.2424 611.052 78.5985C611.744 77.9547 612.626 77.6327 613.699 77.6327C614.748 77.6327 615.607 77.9547 616.275 78.5985C616.966 79.2424 617.312 80.0413 617.312 80.9952C617.312 81.9253 616.966 82.7122 616.275 83.3561C615.607 83.9762 614.748 84.2862 613.699 84.2862Z" fill="white"/>
</g>
<defs>
<filter id="filter0_g_3027_42" x="3.8147e-06" y="10.3152" width="672.405" height="119.385" filterUnits="userSpaceOnUse" color-interpolation-filters="sRGB">
<feFlood flood-opacity="0" result="BackgroundImageFix"/>
<feBlend mode="normal" in="SourceGraphic" in2="BackgroundImageFix" result="shape"/>
<feTurbulence type="fractalNoise" baseFrequency="0.099840916693210602 0.064265422523021698" numOctaves="3" seed="1607" />
<feDisplacementMap in="shape" scale="60.811027526855469" xChannelSelector="R" yChannelSelector="G" result="displacedImage" width="100%" height="100%" />
<feMerge result="effect1_texture_3027_42">
<feMergeNode in="displacedImage"/>
</feMerge>
</filter>
<filter id="filter1_g_3027_42" x="53.1325" y="54.4534" width="565.074" height="39.9204" filterUnits="userSpaceOnUse" color-interpolation-filters="sRGB">
<feFlood flood-opacity="0" result="BackgroundImageFix"/>
<feBlend mode="normal" in="SourceGraphic" in2="BackgroundImageFix" result="shape"/>
<feTurbulence type="fractalNoise" baseFrequency="0.057051949203014374 0.057051949203014374" numOctaves="3" seed="3319" />
<feDisplacementMap in="shape" scale="1.7885596752166748" xChannelSelector="R" yChannelSelector="G" result="displacedImage" width="100%" height="100%" />
<feMerge result="effect1_texture_3027_42">
<feMergeNode in="displacedImage"/>
</feMerge>
</filter>
</defs>
</svg>
