<svg width="144" height="47" viewBox="0 0 144 47" fill="none" xmlns="http://www.w3.org/2000/svg">
<g filter="url(#filter0_g_780_220)">
<rect x="6.30981" y="17.6279" width="129.865" height="23.1606" transform="rotate(-5 6.30981 17.6279)" fill="url(#paint0_linear_780_220)"/>
</g>
<path d="M15.4912 34.736L14.4262 22.5632L17.929 22.2568L22.0823 30.3852L24.7263 21.6621L28.2117 21.3571L29.2766 33.5299L26.3115 33.7893L25.6728 26.4891L23.5891 34.0275L21.1961 34.2369L17.8162 27.159L18.4564 34.4766L15.4912 34.736ZM40.4534 27.6771C40.7219 30.7464 38.6692 32.848 35.8255 33.0968C32.9817 33.3456 30.6646 31.6263 30.3961 28.557C30.1276 25.4878 32.1629 23.3878 34.9893 23.1405C37.8331 22.8917 40.1849 24.6079 40.4534 27.6771ZM33.4133 28.2931C33.5559 29.923 34.5258 30.6245 35.6009 30.5304C36.6587 30.4379 37.5788 29.5711 37.4362 27.9411C37.2921 26.2938 36.2543 25.6158 35.2139 25.7068C34.1388 25.8009 33.2692 26.6458 33.4133 28.2931ZM50.059 28.8811C50.2062 30.5631 48.8257 31.9594 46.3981 32.1718C43.8144 32.3978 41.9545 31.1103 41.6519 29.2497L44.5824 28.9933C44.7109 29.6635 45.3573 30.0612 46.1722 29.9899C46.9352 29.9232 47.3037 29.5415 47.2658 29.108C47.1292 27.5474 41.9564 29.1357 41.6454 25.581C41.5013 23.9336 42.7875 22.4582 45.3192 22.2367C47.8162 22.0183 49.3247 23.2841 49.6824 25.1748L46.9426 25.4145C46.7983 24.7632 46.2575 24.3737 45.4252 24.4465C44.7316 24.5072 44.3743 24.818 44.4153 25.2862C44.5503 26.8295 49.6915 25.2789 50.059 28.8811ZM52.2928 28.1265L51.956 24.277L50.7768 24.3802L50.5614 21.9179L51.7405 21.8147L51.5342 19.4565L54.4994 19.197L54.7057 21.5553L56.6478 21.3854L56.8632 23.8477L54.9211 24.0176L55.261 27.9018C55.311 28.474 55.575 28.6955 56.2339 28.6379L57.2917 28.5454L57.5117 31.0597L56.0031 31.1917C53.9916 31.3676 52.5127 30.6409 52.2928 28.1265ZM65.2145 23.6063L66.8271 23.4652C68.0062 23.362 68.4575 22.7285 68.3756 21.7921C68.2937 20.8557 67.7392 20.3102 66.5601 20.4133L64.9475 20.5544L65.2145 23.6063ZM71.3928 21.5281C71.5688 23.5396 70.3627 25.5322 67.2589 25.8037L65.4208 25.9645L65.8031 30.3343L62.8379 30.5937L61.773 18.4209L66.5762 18.0007C69.5587 17.7397 71.1971 19.2913 71.3928 21.5281ZM82.703 23.9808C82.9716 27.05 80.9189 29.1516 78.0751 29.4004C75.2313 29.6492 72.9143 27.9299 72.6458 24.8607C72.3772 21.7915 74.4126 19.6914 77.239 19.4441C80.0828 19.1953 82.4345 20.9116 82.703 23.9808ZM75.6629 24.5967C75.8055 26.2267 76.7755 26.9281 77.8506 26.834C78.9083 26.7415 79.8285 25.8747 79.6859 24.2448C79.5417 22.5974 78.5039 21.9194 77.4635 22.0105C76.3884 22.1045 75.5188 22.9494 75.6629 24.5967ZM86.9379 20.1157C87.4011 19.219 88.3665 18.4706 89.7884 18.3462C92.164 18.1383 94.2209 19.8804 94.4879 22.9323C94.7549 25.9841 93.0348 28.0916 90.6592 28.2994C89.2373 28.4238 88.1551 27.8371 87.5462 27.0691L88.0681 33.0341L85.1029 33.2935L83.8529 19.0053L86.818 18.7458L86.9379 20.1157ZM91.4708 23.1962C91.3357 21.653 90.2572 20.9086 89.1301 21.0072C88.0203 21.1043 87.0889 22.042 87.2239 23.5853C87.359 25.1285 88.439 25.8902 89.5488 25.7931C90.6759 25.6945 91.6058 24.7395 91.4708 23.1962ZM105.176 17.1397L106.023 26.8155L103.058 27.0749L102.942 25.7571C102.426 26.641 101.437 27.3216 100.136 27.4353C97.8993 27.631 96.2557 26.2198 96.0297 23.6361L95.5351 17.9832L98.4829 17.7253L98.9426 22.9794C99.0579 24.2972 99.8672 24.9603 100.977 24.8632C102.121 24.763 102.786 23.971 102.671 22.6532L102.211 17.3991L105.176 17.1397ZM108.153 26.6292L107.03 13.7975L109.995 13.538L111.118 26.3697L108.153 26.6292ZM112.252 21.3781C111.985 18.3262 113.708 16.2534 116.084 16.0456C117.523 15.9197 118.604 16.4891 119.199 17.2933L119.079 15.9234L122.044 15.664L122.89 25.3398L119.925 25.5992L119.805 24.2293C119.342 25.126 118.377 25.8745 116.937 26.0004C114.579 26.2067 112.519 24.43 112.252 21.3781ZM119.502 20.7613C119.367 19.218 118.304 18.4548 117.177 18.5534C116.067 18.6505 115.134 19.5708 115.269 21.1141C115.404 22.6574 116.486 23.4364 117.596 23.3393C118.723 23.2407 119.637 22.3046 119.502 20.7613ZM127.608 20.4016L128.001 24.8927L125.036 25.1521L124.189 15.4763L127.154 15.2169L127.295 16.8295C127.882 15.7473 128.879 14.9611 130.18 14.8474L130.454 17.9859L129.639 18.0572C128.235 18.1801 127.462 18.7369 127.608 20.4016Z" fill="white"/>
<defs>
<filter id="filter0_g_780_220" x="3.33786e-06" y="-0.000240803" width="144.009" height="47.0102" filterUnits="userSpaceOnUse" color-interpolation-filters="sRGB">
<feFlood flood-opacity="0" result="BackgroundImageFix"/>
<feBlend mode="normal" in="SourceGraphic" in2="BackgroundImageFix" result="shape"/>
<feTurbulence type="fractalNoise" baseFrequency="0.052827782928943634 0.052827782928943634" numOctaves="3" seed="8273" />
<feDisplacementMap in="shape" scale="12.619622230529785" xChannelSelector="R" yChannelSelector="G" result="displacedImage" width="100%" height="100%" />
<feMerge result="effect1_texture_780_220">
<feMergeNode in="displacedImage"/>
</feMerge>
</filter>
<linearGradient id="paint0_linear_780_220" x1="62.2116" y1="17.6279" x2="60.3636" y2="39.073" gradientUnits="userSpaceOnUse">
<stop offset="0.307692" stop-color="#0092A1"/>
<stop offset="1" stop-color="#00363B"/>
</linearGradient>
</defs>
</svg>
