<svg width="145" height="145" viewBox="0 0 145 145" fill="none" xmlns="http://www.w3.org/2000/svg">
<g filter="url(#filter0_d_780_1368)">
<g clip-path="url(#clip0_780_1368)">
<rect width="102.949" height="102.949" transform="translate(20.6001 18.5996)" fill="white"/>
<rect x="20.6016" y="18.5996" width="102.949" height="102.949" fill="#00AEF0"/>
<path fill-rule="evenodd" clip-rule="evenodd" d="M102.764 29.7466C102.686 29.7526 102.447 29.7749 102.232 29.7957C102.018 29.817 101.632 29.872 101.374 29.9183C101.115 29.9643 100.661 30.0639 100.364 30.1394C100.067 30.215 99.4736 30.3891 99.0451 30.5263C98.6166 30.6638 97.9951 30.8745 97.664 30.9949C97.3328 31.1151 96.7828 31.3233 96.4422 31.4573C96.1011 31.5918 95.5115 31.8341 95.1318 31.996C94.7522 32.1579 94.1544 32.4215 93.8038 32.5817C93.4532 32.7422 92.6723 33.1193 92.0685 33.4201C91.4646 33.7206 90.8714 34.0187 90.75 34.0824C90.5913 34.1656 90.5159 34.1883 90.4812 34.1632C90.4546 34.1441 90.2428 33.987 90.0112 33.814C89.7793 33.6413 89.446 33.4121 89.2707 33.3052C89.0954 33.1983 88.7926 33.0323 88.5978 32.9365C88.403 32.8404 88.0606 32.6907 87.8364 32.6043C87.6122 32.5176 87.222 32.3818 86.9687 32.3024C86.7155 32.2234 86.2534 32.097 85.9417 32.0218C85.6301 31.9466 85.1757 31.8498 84.9324 31.8066C84.5524 31.739 84.369 31.7282 83.6398 31.7286C82.8599 31.7289 82.7487 31.737 82.294 31.8244C82.0213 31.8766 81.5032 31.9904 81.143 32.0771C80.7829 32.1638 80.1373 32.3498 79.7088 32.4905C79.2802 32.6308 78.6746 32.8522 78.363 32.9825C78.0514 33.1127 77.5014 33.3641 77.1412 33.5406C76.781 33.7175 76.2233 34.0062 75.9017 34.1824C75.5801 34.3585 74.9586 34.7148 74.5205 34.9742C74.0821 35.2332 73.3731 35.6643 72.9446 35.9321C72.5161 36.1998 71.6314 36.767 70.9791 37.1929C70.3267 37.6184 69.3464 38.2713 68.8011 38.6438C68.2557 39.0161 67.3551 39.6404 66.8001 40.0311C66.2452 40.4214 65.6315 40.8552 65.4367 40.9945L65.0825 41.2484C64.2591 40.8225 63.7014 40.5422 63.3118 40.3514C62.9222 40.1602 62.4838 39.9527 62.3379 39.89C62.1916 39.8274 61.8892 39.7079 61.665 39.624C61.4408 39.5404 61.0665 39.4182 60.8328 39.3524C60.599 39.2866 60.2644 39.202 60.0891 39.1644C59.9138 39.1268 59.5632 39.0641 59.3099 39.0251C59.0567 38.9865 58.6583 38.9356 58.4246 38.9123C58.1908 38.8893 57.6809 38.8702 57.2913 38.8702C56.9018 38.8698 56.4159 38.889 56.2112 38.9126C56.0065 38.9363 55.6562 38.9865 55.432 39.0237C55.2079 39.0613 54.8254 39.1397 54.5821 39.1978C54.3384 39.2563 53.7647 39.4262 53.3072 39.576C52.8496 39.7253 52.0924 39.9997 51.625 40.1857C51.1575 40.3713 50.4882 40.6509 50.1376 40.8065C49.787 40.9625 49.1576 41.2564 48.7387 41.4601C48.3197 41.6641 47.6426 42.0078 47.2336 42.2244C46.8245 42.4406 46.1711 42.7979 45.7816 43.0179C45.392 43.238 44.8342 43.559 44.5421 43.7314C44.2499 43.9041 43.7799 44.1865 43.4973 44.3595C43.2147 44.5326 42.6173 44.9083 42.1693 45.1949C41.7213 45.4814 40.9723 45.9748 40.5048 46.2913C40.0373 46.6078 39.2086 47.1799 38.6632 47.5633C38.1178 47.9463 37.3051 48.5257 36.8571 48.8506C36.4091 49.1755 35.9044 49.5449 35.7359 49.6717C35.5673 49.7984 35.4359 49.9056 35.4437 49.9105C35.4518 49.9154 35.5099 49.8935 35.5733 49.8621C35.6367 49.8308 36.039 49.5905 36.4675 49.328C36.896 49.0658 38.5616 48.0285 40.1684 47.0232C41.7755 46.0177 43.3372 45.0458 43.639 44.8634C43.9407 44.6809 44.4429 44.3877 44.7545 44.2119C45.0662 44.036 45.6318 43.738 46.0118 43.5496C46.3918 43.3609 46.9651 43.0889 47.2867 42.9448C47.6083 42.801 48.1579 42.5625 48.5085 42.4152C48.8591 42.2679 49.4806 42.0137 49.8897 41.8504C50.2987 41.6871 50.9121 41.4524 51.2531 41.3288C51.5938 41.2052 52.1357 41.0259 52.4572 40.9305C52.7788 40.8351 53.2647 40.702 53.5374 40.6352C53.8101 40.5683 54.0728 40.506 54.1217 40.497L54.1581 40.4902L54.5644 40.4144C54.7592 40.3779 55.1576 40.3145 55.4498 40.2731C55.7554 40.2299 56.2816 40.1884 56.6893 40.1752C57.1705 40.1595 57.5452 40.1665 57.8579 40.1972C58.1112 40.2219 58.5096 40.2797 58.7433 40.3256C58.977 40.3719 59.3755 40.474 59.6287 40.553C59.8819 40.6317 60.2484 40.7591 60.4432 40.8361C60.638 40.913 61.0045 41.0739 61.2577 41.1937C61.511 41.3138 61.9572 41.5499 62.2494 41.7184C62.5415 41.8873 62.8921 42.099 63.0285 42.1892C63.1648 42.2794 63.2962 42.379 63.3206 42.4107C63.3589 42.4601 63.3352 42.4893 63.1436 42.6272C63.0217 42.7153 62.4838 43.074 61.9483 43.425C61.4125 43.7756 60.576 44.3094 60.0891 44.6109C59.6021 44.9128 58.8772 45.3554 58.4777 45.5946C58.0782 45.8338 57.4011 46.2304 56.9726 46.4759C56.5441 46.7214 56.1892 46.9188 56.1839 46.9146C56.1789 46.9108 56.2643 46.6956 56.3737 46.4372C56.4831 46.1789 56.7045 45.6695 56.866 45.3056C57.0275 44.9417 57.2304 44.4716 57.3175 44.261C57.4043 44.0503 57.5757 43.6273 57.6979 43.3208C57.8201 43.0144 58.1034 42.3407 58.3272 41.8236C58.551 41.3065 58.744 40.8323 58.7564 40.7696L58.7787 40.6557L57.7694 40.6571C57.6554 40.8055 57.558 40.982 57.4794 41.1446C57.4011 41.3072 57.2516 41.6443 57.1475 41.8932C57.0434 42.1422 56.7566 42.8316 56.5104 43.4253C56.2643 44.019 55.8 45.1472 55.4784 45.9323C55.1569 46.7175 54.8516 47.4446 54.7999 47.5476L54.706 47.7353C53.5246 48.3349 52.891 48.6424 52.5362 48.805C52.1813 48.9676 51.8849 49.0933 51.8775 49.0835C51.87 49.0741 51.9359 48.8781 52.0237 48.6483C52.1112 48.4185 52.2036 48.1834 52.2284 48.126C52.2532 48.0685 52.3641 47.7788 52.4742 47.4818C52.5847 47.1852 52.6963 46.8951 52.7225 46.8377C52.7483 46.7802 52.8567 46.5215 52.9626 46.2631C53.0688 46.0048 53.2795 45.503 53.4308 45.1489C53.582 44.7948 53.8805 44.0503 54.0937 43.4949C54.3073 42.9396 54.6306 42.1248 54.8126 41.6843C54.9943 41.2438 55.1523 40.8403 55.1636 40.7877C55.182 40.7017 55.1742 40.6919 55.0868 40.6919C55.0333 40.6919 54.8141 40.724 54.5998 40.763C54.3855 40.802 54.1642 40.8528 54.1079 40.8761C54.0257 40.9099 53.9677 40.997 53.8115 41.3187C53.7045 41.5391 53.4981 41.9855 53.3525 42.3111C53.2069 42.6366 52.9392 43.2634 52.7579 43.7039C52.5762 44.1443 52.2415 44.9748 52.0142 45.5493C51.7865 46.1238 51.4203 47.064 51.2 47.6385C50.9797 48.213 50.7499 48.8085 50.6897 48.9617C50.6291 49.1149 50.5278 49.3464 50.4648 49.476L50.3501 49.7113C49.9109 49.8666 49.6003 49.9673 49.3761 50.0352C49.152 50.1034 48.7458 50.2148 48.4731 50.2827C48.2004 50.3506 47.9744 50.4025 47.9709 50.3976C47.9674 50.3931 48.0885 50.1153 48.24 49.7799C48.3916 49.445 48.5754 49.0219 48.6487 48.8398C48.722 48.658 48.7858 48.4933 48.7904 48.4742C48.795 48.455 48.8088 48.416 48.8212 48.3871C48.8336 48.3582 48.9618 48.0139 49.1059 47.6211C49.2501 47.2287 49.4594 46.6803 49.5706 46.4024C49.6821 46.1249 49.8089 45.8192 49.8528 45.7234C49.8967 45.6277 50.0933 45.1499 50.2902 44.6614C50.4871 44.1732 50.7821 43.4368 50.9457 43.0249C51.1097 42.613 51.2538 42.2254 51.2662 42.1631C51.2868 42.0597 51.2807 42.0499 51.2 42.0499C51.1511 42.0499 50.9323 42.1147 50.713 42.1934C50.4938 42.2724 50.2587 42.3647 50.1907 42.3988C50.1227 42.4326 50.0395 42.4893 50.0062 42.5249C49.9729 42.5604 49.7795 43.0364 49.5769 43.582C49.374 44.1276 49.096 44.8644 48.9593 45.2185C48.8223 45.5726 48.6381 46.0427 48.5503 46.2631C48.4625 46.4835 48.2843 46.9143 48.1551 47.2207C48.0254 47.5271 47.7821 48.0835 47.6143 48.4568C47.4464 48.8304 47.1542 49.4415 46.9648 49.8148C46.7753 50.1884 46.5894 50.5331 46.5511 50.5808C46.4881 50.6605 46.4371 50.6731 45.9547 50.7309C45.6647 50.7653 45.284 50.805 45.1087 50.819L44.79 50.844C45.3116 50.9374 45.5744 50.9798 45.7107 50.9986C45.8471 51.0174 46.1895 51.0429 46.4722 51.055C46.7764 51.0679 47.1734 51.0603 47.4461 51.0362C47.6993 51.0136 48.1136 50.9638 48.3668 50.9255C48.62 50.8876 49.0263 50.8169 49.2699 50.7688C49.5132 50.7208 49.9435 50.6268 50.2261 50.5603C50.5087 50.4938 50.9946 50.3674 51.3062 50.2796C51.6179 50.1919 52.1038 50.0418 52.3864 49.9457C52.669 49.8499 53.1549 49.6699 53.4665 49.546C53.7782 49.4216 54.1688 49.2587 54.3342 49.1835C54.4996 49.1086 55.1771 48.782 55.8393 48.4582C56.5016 48.1344 57.4181 47.6671 57.8757 47.4198C58.3332 47.173 58.9151 46.8526 59.1683 46.7081C59.4215 46.564 59.8518 46.3133 60.1245 46.1514C60.3972 45.9894 60.8515 45.7112 61.1338 45.533C61.416 45.3543 61.9101 45.035 62.2317 44.8226C62.5532 44.6106 63.1825 44.1882 63.6305 43.8839C64.0785 43.5799 64.4571 43.3247 64.4716 43.3174C64.4861 43.3097 64.6218 43.3602 64.7726 43.4291C64.9235 43.4984 65.2939 43.6607 65.596 43.7899C65.8981 43.9191 66.3203 44.081 66.5345 44.1499C66.7488 44.2189 67.0516 44.3066 67.2074 44.3446C67.3632 44.3829 67.6579 44.4424 67.8626 44.4769C68.1686 44.5284 68.4292 44.5392 69.3323 44.5375C70.2754 44.5357 70.4974 44.5249 70.9082 44.4609C71.171 44.4198 71.6094 44.3383 71.8821 44.2798C72.1548 44.2213 72.5214 44.1335 72.6967 44.0848C72.872 44.0357 73.2226 43.9319 73.4758 43.8539C73.729 43.7756 74.199 43.614 74.5205 43.4943C74.8421 43.3748 75.328 43.183 75.6007 43.0681C75.8734 42.9528 76.3277 42.7533 76.61 42.6241C76.8922 42.4949 77.4422 42.2292 77.8318 42.0336C78.2213 41.8375 78.8269 41.5238 79.1775 41.3361C79.5281 41.1484 80.0062 40.8897 80.24 40.7612C80.4737 40.6327 81.1353 40.265 81.7097 39.9447C82.2841 39.6244 82.8578 39.3026 82.9846 39.2299C83.1114 39.1571 83.2867 39.0592 83.3742 39.0122C83.4616 38.9652 84.2666 38.5272 85.1626 38.039C86.0586 37.5505 87.3296 36.8666 87.9869 36.5188L89.1822 35.8868C89.4704 36.0933 89.6032 36.2148 89.6634 36.29C89.7236 36.3649 89.956 36.7009 90.1794 37.0358C90.4033 37.3712 90.6827 37.7629 90.801 37.9063C90.9192 38.0502 91.181 38.3249 91.3828 38.5174C91.5847 38.71 91.9013 38.9791 92.0862 39.1156C92.271 39.2518 92.566 39.4517 92.7413 39.5596C92.9166 39.6675 93.2194 39.8319 93.4142 39.9249C93.609 40.0175 93.9355 40.1477 94.1402 40.2142C94.3449 40.2807 94.5599 40.3444 94.6183 40.3563C94.6767 40.3678 94.7724 40.3862 94.8308 40.3974C94.8892 40.4085 95.0886 40.4437 95.2735 40.4757C95.5331 40.5203 95.8362 40.5339 96.6015 40.5339C97.1841 40.5342 97.7539 40.5161 97.9827 40.4896C98.1969 40.4653 98.5954 40.4134 98.8681 40.3744C99.1408 40.3354 99.627 40.2504 99.9482 40.1857C100.269 40.1209 100.724 40.0192 100.958 39.96C101.191 39.9008 101.629 39.7811 101.931 39.694C102.234 39.6066 102.791 39.429 103.171 39.2991C103.551 39.1693 103.997 39.0105 104.163 38.9461C104.328 38.8817 104.47 38.8057 104.477 38.7768C104.487 38.7378 104.473 38.7316 104.424 38.7525C104.387 38.7678 104.102 38.8423 103.791 38.9179C103.479 38.9931 102.937 39.1035 102.587 39.1623C102.236 39.2215 101.909 39.2758 101.861 39.2835C101.812 39.2908 101.645 39.3134 101.489 39.334C101.333 39.3542 100.982 39.3942 100.71 39.4224C100.437 39.4506 100.114 39.4736 99.9925 39.4736L99.7711 39.4732C99.9571 39.2438 100.194 38.9032 100.418 38.5679C100.642 38.233 101.012 37.6375 101.242 37.2448C101.471 36.8523 101.985 35.9825 102.384 35.3123C102.784 34.642 103.263 33.8352 103.449 33.519C103.635 33.2032 103.868 32.8011 103.966 32.6259C104.088 32.4086 104.141 32.276 104.134 32.2081C104.126 32.1287 104.101 32.1036 104.01 32.082C103.948 32.0674 103.793 32.0455 103.667 32.0333C103.54 32.0214 103.393 32.0218 103.339 32.034C103.263 32.0517 103.197 32.1304 103.034 32.3961C102.92 32.5827 102.739 32.8846 102.632 33.0664C102.525 33.2485 102.25 33.7262 102.021 34.1284C101.792 34.5306 101.396 35.22 101.142 35.6605C100.889 36.1009 100.53 36.7044 100.344 37.001C100.16 37.298 99.82 37.8151 99.5898 38.1501C99.3596 38.4854 99.0356 38.928 98.8691 39.1338L98.567 39.5081C98.2788 39.5136 98.0039 39.5133 97.7702 39.5112C97.5365 39.5091 97.2415 39.4914 97.115 39.4715C96.9886 39.452 96.8569 39.4287 96.8229 39.4196C96.7712 39.4064 96.7906 39.365 96.9426 39.1686C97.0428 39.0394 97.1345 38.9102 97.1465 38.8813C97.1586 38.8524 97.2464 38.7117 97.3417 38.5679C97.4373 38.4245 97.6778 38.0404 97.8765 37.7148C98.0755 37.3893 98.4215 36.8175 98.646 36.4439C98.8702 36.0706 99.2211 35.4752 99.4251 35.1208C99.6295 34.7666 100.004 34.1085 100.257 33.6583C100.511 33.2084 100.775 32.7265 100.846 32.5876C100.917 32.4487 100.957 32.347 100.934 32.3613C100.906 32.3791 100.898 32.3646 100.91 32.3177C100.919 32.2794 100.945 32.2519 100.968 32.2568C100.992 32.2617 101.007 32.2387 101.002 32.2063C100.997 32.1736 100.953 32.136 100.904 32.1228C100.856 32.1092 100.681 32.0966 100.515 32.0946C100.3 32.0921 100.191 32.106 100.134 32.1433C100.09 32.1722 99.9769 32.3094 99.8823 32.4483C99.7878 32.5873 99.4478 33.1395 99.1269 33.6757C98.8061 34.212 98.3553 34.9797 98.1247 35.3819C97.8945 35.7841 97.5942 36.3011 97.4578 36.531C97.3215 36.7608 97.0109 37.2622 96.7676 37.6452C96.5243 38.0282 96.2162 38.5021 96.0827 38.6985C95.9492 38.8949 95.816 39.0554 95.787 39.0554C95.7579 39.0554 95.5865 38.9812 95.4063 38.8904C95.1906 38.7821 95.0001 38.6522 94.8485 38.5105L94.6183 38.2956C94.7341 38.1692 94.8311 38.0387 94.9087 37.9238C94.9866 37.8089 95.0723 37.6741 95.0996 37.6243C95.1272 37.5742 95.3659 37.1121 95.6308 36.5971C95.8954 36.0818 96.2477 35.4178 96.4135 35.1208C96.5796 34.8241 96.8799 34.2677 97.0814 33.8846C97.2829 33.5016 97.4444 33.1531 97.4405 33.1099C97.4358 33.0574 97.4483 33.0389 97.478 33.0542C97.512 33.0713 97.512 33.0653 97.477 33.0281C97.4391 32.987 97.3824 32.9863 97.1228 33.0222C96.9532 33.0458 96.7503 33.0733 96.6724 33.0838C96.5944 33.0942 96.4939 33.1298 96.4485 33.1628C96.4014 33.1976 96.1185 33.7025 95.781 34.3547C95.4587 34.9773 95.0624 35.7214 94.8998 36.0087C94.7376 36.2959 94.4565 36.7549 94.2751 37.0289L93.9454 37.5268C93.0671 36.5727 92.4616 35.961 92.033 35.5515L91.2539 34.8074C92.3794 34.2746 92.8972 34.041 93.1309 33.9442C93.3646 33.8474 93.7949 33.6792 94.0871 33.5706C94.3792 33.4619 95.0408 33.2328 95.5568 33.0619C96.0728 32.8905 96.7821 32.6659 97.1327 32.5622C97.4833 32.4588 97.9852 32.3184 98.2483 32.2505C98.5114 32.183 98.9534 32.0803 99.2311 32.0225C99.5087 31.9647 99.883 31.8943 100.063 31.8661C100.244 31.8379 100.582 31.7906 100.816 31.761C101.05 31.7314 101.535 31.6847 101.896 31.6572C102.257 31.6297 102.91 31.597 103.348 31.5837C103.835 31.5695 104.386 31.5757 104.765 31.5998C105.105 31.6217 105.583 31.6711 105.827 31.7101C106.07 31.7491 106.429 31.8205 106.624 31.8689C106.819 31.9173 107.332 32.0576 107.766 32.1809C108.199 32.3042 108.586 32.4048 108.625 32.4048C108.664 32.4048 108.703 32.393 108.713 32.3787C108.722 32.3644 108.629 32.2352 108.507 32.0914C108.384 31.948 108.149 31.7074 107.985 31.5569C107.821 31.4065 107.559 31.1896 107.403 31.0747C107.247 30.9601 106.968 30.7784 106.783 30.6711C106.598 30.5639 106.303 30.4103 106.128 30.3299C105.953 30.2494 105.642 30.1265 105.437 30.0565C105.233 29.9869 104.914 29.8999 104.729 29.8633C104.544 29.8264 104.201 29.7804 103.968 29.7606C103.734 29.7407 103.399 29.7268 103.224 29.7299C103.049 29.7331 102.842 29.7404 102.764 29.7466ZM81.9487 33.5159C82.197 33.4759 82.6074 33.4313 82.8607 33.417C83.1139 33.4031 83.377 33.3958 83.445 33.4017C83.513 33.4073 83.752 33.4208 83.9762 33.4316C84.2004 33.4428 84.5429 33.4748 84.7376 33.503C84.9324 33.5312 85.3149 33.6026 85.5876 33.6618C85.8603 33.721 86.2665 33.8286 86.4907 33.9007C86.7148 33.9727 87.0173 34.0904 87.1635 34.1622C87.3094 34.2339 87.5566 34.376 87.7125 34.4773C87.8683 34.579 88.1151 34.768 88.2614 34.8969C88.4073 35.026 88.539 35.1528 88.5536 35.1786C88.573 35.2123 88.4572 35.2903 88.1286 35.4651C87.8803 35.5967 87.1989 35.955 86.6146 36.2608C86.0303 36.5665 85.2653 36.962 84.9147 37.14C84.5641 37.3175 84.0701 37.5686 83.8168 37.6981C83.5636 37.8273 83.0696 38.0745 82.719 38.2476C82.3684 38.4206 81.9222 38.6341 81.7274 38.7218C81.5326 38.8096 81.3693 38.8775 81.3647 38.8726C81.3601 38.8677 81.4526 38.6209 81.5701 38.3242C81.6877 38.0275 82.0121 37.1891 82.2912 36.4613C82.5699 35.7336 82.8971 34.8641 83.0182 34.5288C83.1394 34.1938 83.2492 33.8759 83.2619 33.823C83.2842 33.7325 83.2785 33.7266 83.1705 33.7273C83.1071 33.7276 82.9081 33.7617 82.7278 33.8032C82.4863 33.8585 82.3765 33.9017 82.3103 33.9686C82.2551 34.0239 82.1293 34.2931 81.9845 34.6681C81.8545 35.0031 81.6226 35.6222 81.4682 36.0435C81.3141 36.4648 81.0715 37.1386 80.9288 37.5407C80.7861 37.9429 80.5718 38.5303 80.4525 38.8465C80.2499 39.3834 80.2279 39.4248 80.1139 39.4799C80.047 39.5122 79.809 39.6202 79.5848 39.7198C79.3606 39.819 79.066 39.9513 78.9296 40.014C78.7933 40.0763 78.4108 40.241 78.0797 40.3796C77.7486 40.5182 77.4178 40.6529 77.3448 40.6791C77.2719 40.7052 77.2124 40.7149 77.2127 40.7006C77.2131 40.6864 77.3321 40.3845 77.4769 40.0304C77.6218 39.6762 78.0372 38.5871 78.3998 37.6104C78.7625 36.6337 79.1612 35.5564 79.2866 35.2165C79.4116 34.8767 79.5062 34.5828 79.4963 34.5636C79.4864 34.5445 79.3989 34.5288 79.3015 34.5288C79.1988 34.5288 78.987 34.5737 78.7968 34.6357C78.6166 34.6942 78.4409 34.7687 78.4062 34.8011C78.3715 34.8331 78.2858 35.0006 78.216 35.173C78.1463 35.3453 78.0177 35.6824 77.9302 35.9216C77.8424 36.1608 77.4553 37.2737 77.0697 38.3938C76.6843 39.514 76.3111 40.5875 76.241 40.779C76.1705 40.9705 76.1014 41.1373 76.0869 41.1495C76.0727 41.1617 75.878 41.2341 75.6538 41.311C75.4296 41.3876 74.9756 41.5301 74.6445 41.6272C74.3133 41.7244 73.8951 41.8438 73.3872 41.9803L73.4776 41.8323C73.5271 41.7508 73.6529 41.5196 73.757 41.3187C73.8607 41.1178 74.0258 40.7651 74.1239 40.5353C74.2216 40.3054 74.4249 39.7807 74.5754 39.3688C74.7259 38.9569 75.0007 38.2128 75.186 37.7148C75.4137 37.1034 75.521 36.767 75.5174 36.6789C75.5174 36.5645 75.5523 36.5014 75.5687 36.4717C75.5709 36.4678 75.5727 36.4645 75.5741 36.4617C75.5497 36.4523 75.3627 36.4833 75.158 36.531C75.0282 36.5612 74.9007 36.591 74.8148 36.6111L74.7153 36.6344C74.6763 36.6434 74.6037 36.6946 74.5542 36.7475C74.5046 36.8008 74.3895 37.0324 74.2985 37.2622C74.2078 37.492 73.9907 38.0637 73.8158 38.5331C73.6412 39.0025 73.4007 39.6212 73.2817 39.9085C73.1627 40.1958 72.8702 40.8225 72.6319 41.3013C72.3932 41.7801 72.1828 42.1829 72.164 42.1965C72.1453 42.2104 71.9827 42.2456 71.8024 42.2749C71.6222 42.3045 71.2238 42.3522 70.9171 42.3807C70.6104 42.4096 70.0724 42.4336 69.7218 42.434C69.3695 42.4343 68.8786 42.411 68.624 42.3814C68.3708 42.3525 68.0761 42.3114 67.9688 42.2902C67.8615 42.2693 67.6306 42.2153 67.4553 42.1704C67.28 42.1255 67.0009 42.0436 66.5345 41.8894L67.4022 41.2797C67.8792 40.9444 68.7717 40.3176 69.3854 39.8873C69.9991 39.4569 70.7081 38.9656 70.9613 38.7953C71.2146 38.6247 71.4295 38.475 71.4394 38.4624C71.4494 38.4495 71.4731 38.4328 71.4926 38.4252C71.512 38.4175 71.9342 38.1449 72.431 37.8189C72.9279 37.493 73.605 37.0602 73.9362 36.8572C74.2673 36.6539 74.801 36.3367 75.1226 36.1518C75.4441 35.9672 76.0653 35.6378 76.5037 35.4199C76.9418 35.2019 77.5396 34.9223 77.8318 34.7983C78.124 34.6744 78.618 34.4783 78.9296 34.3627C79.2413 34.2471 79.7034 34.0876 79.9567 34.0083C80.2099 33.9285 80.66 33.8018 80.9571 33.7262C81.2542 33.6507 81.7005 33.5559 81.9487 33.5159Z" fill="white"/>
<path d="M48.7921 72.2196C48.7921 75.3498 48.0639 77.7464 46.6075 79.4093C45.162 81.0722 43.0643 81.9037 40.3145 81.9037C39.0863 81.9037 37.9505 81.6917 36.9071 81.2678V76.328C37.8093 77.0127 38.82 77.3551 39.9395 77.3551C42.3415 77.3551 43.5425 75.5726 43.5425 72.0077V58.1174H48.7921V72.2196ZM68.6591 62.4051H61.9912V81.4961H56.7089V62.4051H50.0736V58.1174H68.6591V62.4051ZM70.1362 81.4961V58.1174H78.6464C81.2549 58.1174 83.2602 58.5956 84.6623 59.5521C86.0644 60.5085 86.7654 61.8562 86.7654 63.5952C86.7654 64.856 86.3361 65.9592 85.4775 66.9048C84.6297 67.8504 83.5428 68.5079 82.2168 68.8775V68.9427C83.8797 69.1492 85.2057 69.7633 86.1948 70.7849C87.1947 71.8066 87.6947 73.0511 87.6947 74.5184C87.6947 76.6595 86.9284 78.3605 85.3959 79.6212C83.8634 80.8711 81.7712 81.4961 79.1192 81.4961H70.1362ZM75.4021 61.9975V67.5406H77.7172C78.804 67.5406 79.6572 67.2798 80.2768 66.7581C80.9071 66.2255 81.2223 65.4973 81.2223 64.5734C81.2223 62.8562 79.9398 61.9975 77.3748 61.9975H75.4021ZM75.4021 71.4534V77.6159H78.2552C79.4725 77.6159 80.4235 77.3334 81.1082 76.7682C81.8038 76.203 82.1516 75.4313 82.1516 74.4531C82.1516 73.5184 81.8092 72.7848 81.1245 72.2522C80.4507 71.7196 79.5051 71.4534 78.2878 71.4534H75.4021ZM89.8891 81.4961V58.1174H98.3993C101.008 58.1174 103.013 58.5956 104.415 59.5521C105.817 60.5085 106.518 61.8562 106.518 63.5952C106.518 64.856 106.089 65.9592 105.23 66.9048C104.383 67.8504 103.296 68.5079 101.97 68.8775V68.9427C103.633 69.1492 104.959 69.7633 105.948 70.7849C106.948 71.8066 107.448 73.0511 107.448 74.5184C107.448 76.6595 106.681 78.3605 105.149 79.6212C103.616 80.8711 101.524 81.4961 98.8721 81.4961H89.8891ZM95.155 61.9975V67.5406H97.47C98.5569 67.5406 99.4101 67.2798 100.03 66.7581C100.66 66.2255 100.975 65.4973 100.975 64.5734C100.975 62.8562 99.6927 61.9975 97.1277 61.9975H95.155ZM95.155 71.4534V77.6159H98.008C99.2253 77.6159 100.176 77.3334 100.861 76.7682C101.557 76.203 101.904 75.4313 101.904 74.4531C101.904 73.5184 101.562 72.7848 100.877 72.2522C100.204 71.7196 99.258 71.4534 98.0407 71.4534H95.155Z" fill="white"/>
<path d="M53.0172 99.2547C53.0172 99.7167 52.9194 100.076 52.7238 100.333C52.5281 100.589 52.2664 100.717 51.9385 100.717C51.7863 100.717 51.6613 100.695 51.5635 100.651V100.2C51.6613 100.271 51.7881 100.306 51.9439 100.306C52.3551 100.306 52.5607 99.9576 52.5607 99.2602V96.7549H53.0172V99.2547ZM54.9452 100.717C54.534 100.717 54.2052 100.587 53.9589 100.328C53.7143 100.067 53.5921 99.7221 53.5921 99.2928C53.5921 98.8254 53.7198 98.4604 53.9752 98.1977C54.2306 97.9351 54.5757 97.8038 55.0104 97.8038C55.4253 97.8038 55.7486 97.9315 55.9805 98.1869C56.2141 98.4423 56.331 98.7964 56.331 99.2493C56.331 99.6931 56.2051 100.049 55.9533 100.317C55.7033 100.583 55.3673 100.717 54.9452 100.717ZM54.9778 98.1787C54.6916 98.1787 54.4652 98.2765 54.2985 98.4722C54.1319 98.666 54.0485 98.9341 54.0485 99.2765C54.0485 99.6062 54.1328 99.8661 54.3012 100.056C54.4697 100.247 54.6952 100.342 54.9778 100.342C55.2658 100.342 55.4868 100.248 55.6408 100.062C55.7966 99.8752 55.8745 99.6098 55.8745 99.2656C55.8745 98.9178 55.7966 98.6497 55.6408 98.4613C55.4868 98.2729 55.2658 98.1787 54.9778 98.1787ZM59.1258 100.651H58.6802V100.211H58.6693C58.4845 100.548 58.1983 100.717 57.8107 100.717C57.1477 100.717 56.8162 100.322 56.8162 99.5319V97.869H57.2591V99.4612C57.2591 100.048 57.4837 100.342 57.9329 100.342C58.1503 100.342 58.3287 100.262 58.4682 100.102C58.6095 99.9413 58.6802 99.7311 58.6802 99.4721V97.869H59.1258V100.651ZM61.3119 98.32C61.234 98.2602 61.1217 98.2304 60.975 98.2304C60.7848 98.2304 60.6254 98.32 60.4968 98.4994C60.37 98.6787 60.3066 98.9232 60.3066 99.233V100.651H59.8609V97.869H60.3066V98.4423H60.3174C60.3808 98.2467 60.4777 98.0945 60.6082 97.9858C60.7386 97.8753 60.8844 97.8201 61.0456 97.8201C61.1616 97.8201 61.2503 97.8327 61.3119 97.8581V98.32ZM63.9382 100.651H63.4926V99.0645C63.4926 98.474 63.2771 98.1787 62.8459 98.1787C62.6231 98.1787 62.4384 98.263 62.2916 98.4314C62.1467 98.5981 62.0743 98.8091 62.0743 99.0645V100.651H61.6286V97.869H62.0743V98.3309H62.0851C62.2953 97.9795 62.5996 97.8038 62.9981 97.8038C63.3024 97.8038 63.5352 97.9025 63.6964 98.0999C63.8576 98.2956 63.9382 98.5791 63.9382 98.9504V100.651ZM66.6053 100.651H66.1597V100.217H66.1488C65.955 100.55 65.6697 100.717 65.2929 100.717C65.0158 100.717 64.7984 100.643 64.6408 100.496C64.485 100.35 64.4071 100.155 64.4071 99.9123C64.4071 99.3924 64.7133 99.0899 65.3255 99.0048L66.1597 98.8879C66.1597 98.4151 65.9686 98.1787 65.5864 98.1787C65.2513 98.1787 64.9487 98.2928 64.6788 98.5211V98.0646C64.9524 97.8907 65.2676 97.8038 65.6244 97.8038C66.2784 97.8038 66.6053 98.1497 66.6053 98.8417V100.651ZM66.1597 99.2439L65.4886 99.3362C65.2821 99.3652 65.1263 99.4169 65.0212 99.4911C64.9161 99.5636 64.8636 99.6931 64.8636 99.8797C64.8636 100.016 64.9116 100.127 65.0076 100.214C65.1054 100.299 65.235 100.342 65.3962 100.342C65.6172 100.342 65.7992 100.265 65.9423 100.111C66.0873 99.9549 66.1597 99.7583 66.1597 99.521V99.2439ZM67.7236 100.651H67.278V96.5321H67.7236V100.651ZM70.9819 100.717C70.5707 100.717 70.2419 100.587 69.9955 100.328C69.751 100.067 69.6287 99.7221 69.6287 99.2928C69.6287 98.8254 69.7564 98.4604 70.0118 98.1977C70.2672 97.9351 70.6123 97.8038 71.0471 97.8038C71.4619 97.8038 71.7852 97.9315 72.0171 98.1869C72.2508 98.4423 72.3676 98.7964 72.3676 99.2493C72.3676 99.6931 72.2417 100.049 71.9899 100.317C71.74 100.583 71.4039 100.717 70.9819 100.717ZM71.0145 98.1787C70.7282 98.1787 70.5018 98.2765 70.3352 98.4722C70.1685 98.666 70.0852 98.9341 70.0852 99.2765C70.0852 99.6062 70.1694 99.8661 70.3379 100.056C70.5063 100.247 70.7319 100.342 71.0145 100.342C71.3025 100.342 71.5235 100.248 71.6775 100.062C71.8332 99.8752 71.9111 99.6098 71.9111 99.2656C71.9111 98.9178 71.8332 98.6497 71.6775 98.4613C71.5235 98.2729 71.3025 98.1787 71.0145 98.1787ZM74.2875 96.9234C74.2005 96.8745 74.1018 96.85 73.9913 96.85C73.6797 96.85 73.5239 97.0466 73.5239 97.4396V97.869H74.1761V98.2494H73.5239V100.651H73.081V98.2494H72.6055V97.869H73.081V97.4179C73.081 97.1263 73.1653 96.8962 73.3337 96.7277C73.5022 96.5575 73.7123 96.4723 73.9641 96.4723C74.1 96.4723 74.2078 96.4886 74.2875 96.5212V96.9234ZM78.2141 97.1679H77.0892V100.651H76.6327V97.1679H75.5105V96.7549H78.2141V97.1679ZM79.5688 98.32C79.4909 98.2602 79.3786 98.2304 79.2319 98.2304C79.0417 98.2304 78.8823 98.32 78.7537 98.4994C78.6269 98.6787 78.5635 98.9232 78.5635 99.233V100.651H78.1178V97.869H78.5635V98.4423H78.5743C78.6377 98.2467 78.7346 98.0945 78.8651 97.9858C78.9955 97.8753 79.1413 97.8201 79.3025 97.8201C79.4185 97.8201 79.5072 97.8327 79.5688 97.8581V98.32ZM81.0485 100.717C80.6373 100.717 80.3085 100.587 80.0622 100.328C79.8176 100.067 79.6953 99.7221 79.6953 99.2928C79.6953 98.8254 79.823 98.4604 80.0785 98.1977C80.3339 97.9351 80.679 97.8038 81.1137 97.8038C81.5285 97.8038 81.8519 97.9315 82.0837 98.1869C82.3174 98.4423 82.4343 98.7964 82.4343 99.2493C82.4343 99.6931 82.3084 100.049 82.0566 100.317C81.8066 100.583 81.4706 100.717 81.0485 100.717ZM81.0811 98.1787C80.7949 98.1787 80.5685 98.2765 80.4018 98.4722C80.2352 98.666 80.1518 98.9341 80.1518 99.2765C80.1518 99.6062 80.2361 99.8661 80.4045 100.056C80.573 100.247 80.7985 100.342 81.0811 100.342C81.3691 100.342 81.5901 100.248 81.7441 100.062C81.8999 99.8752 81.9778 99.6098 81.9778 99.2656C81.9778 98.9178 81.8999 98.6497 81.7441 98.4613C81.5901 98.2729 81.3691 98.1787 81.0811 98.1787ZM83.4357 100.249H83.4248V101.931H82.9792V97.869H83.4248V98.3581H83.4357C83.6549 97.9885 83.9755 97.8038 84.3976 97.8038C84.7563 97.8038 85.0361 97.9287 85.2372 98.1787C85.4383 98.4269 85.5388 98.7602 85.5388 99.1787C85.5388 99.6442 85.4256 100.017 85.1992 100.298C84.9727 100.577 84.663 100.717 84.2699 100.717C83.9094 100.717 83.6313 100.561 83.4357 100.249ZM83.4248 99.127V99.5156C83.4248 99.7456 83.4991 99.9413 83.6476 100.102C83.798 100.262 83.9882 100.342 84.2183 100.342C84.4882 100.342 84.6992 100.238 84.8514 100.032C85.0053 99.8253 85.0823 99.5382 85.0823 99.1705C85.0823 98.8607 85.0108 98.618 84.8677 98.4423C84.7246 98.2666 84.5307 98.1787 84.2862 98.1787C84.0272 98.1787 83.8188 98.2693 83.6612 98.4504C83.5036 98.6298 83.4248 98.8553 83.4248 99.127ZM86.312 97.1625C86.2323 97.1625 86.1644 97.1353 86.1082 97.081C86.0521 97.0266 86.024 96.9578 86.024 96.8745C86.024 96.7911 86.0521 96.7223 86.1082 96.668C86.1644 96.6118 86.2323 96.5837 86.312 96.5837C86.3935 96.5837 86.4624 96.6118 86.5185 96.668C86.5765 96.7223 86.6055 96.7911 86.6055 96.8745C86.6055 96.9542 86.5765 97.0221 86.5185 97.0783C86.4624 97.1344 86.3935 97.1625 86.312 97.1625ZM86.5294 100.651H86.0838V97.869H86.5294V100.651ZM89.1612 100.524C88.9474 100.652 88.6938 100.717 88.4003 100.717C88.0036 100.717 87.683 100.588 87.4385 100.331C87.1957 100.072 87.0744 99.7366 87.0744 99.3254C87.0744 98.8671 87.2057 98.4994 87.4683 98.2222C87.731 97.9432 88.0815 97.8038 88.5199 97.8038C88.7644 97.8038 88.98 97.849 89.1666 97.9396V98.3961C88.9601 98.2512 88.7391 98.1787 88.5036 98.1787C88.2192 98.1787 87.9855 98.2811 87.8026 98.4858C87.6214 98.6887 87.5308 98.9558 87.5308 99.2873C87.5308 99.6134 87.616 99.8706 87.7863 100.059C87.9583 100.247 88.1884 100.342 88.4764 100.342C88.7192 100.342 88.9474 100.261 89.1612 100.1V100.524ZM91.6598 100.651H91.2142V100.217H91.2033C91.0095 100.55 90.7242 100.717 90.3474 100.717C90.0702 100.717 89.8528 100.643 89.6952 100.496C89.5395 100.35 89.4616 100.155 89.4616 99.9123C89.4616 99.3924 89.7677 99.0899 90.38 99.0048L91.2142 98.8879C91.2142 98.4151 91.023 98.1787 90.6408 98.1787C90.3057 98.1787 90.0032 98.2928 89.7333 98.5211V98.0646C90.0068 97.8907 90.322 97.8038 90.6789 97.8038C91.3328 97.8038 91.6598 98.1497 91.6598 98.8417V100.651ZM91.2142 99.2439L90.543 99.3362C90.3365 99.3652 90.1807 99.4169 90.0757 99.4911C89.9706 99.5636 89.9181 99.6931 89.9181 99.8797C89.9181 100.016 89.9661 100.127 90.0621 100.214C90.1599 100.299 90.2894 100.342 90.4506 100.342C90.6716 100.342 90.8537 100.265 90.9968 100.111C91.1417 99.9549 91.2142 99.7583 91.2142 99.521V99.2439ZM92.7781 100.651H92.3324V96.5321H92.7781V100.651ZM37.3714 107.651V103.755H38.48C38.817 103.755 39.0841 103.837 39.2816 104.002C39.479 104.167 39.5778 104.382 39.5778 104.646C39.5778 104.867 39.518 105.059 39.3984 105.222C39.2789 105.385 39.114 105.501 38.9039 105.57V105.581C39.1666 105.612 39.3767 105.711 39.5343 105.88C39.6919 106.046 39.7707 106.264 39.7707 106.532C39.7707 106.865 39.6511 107.135 39.412 107.342C39.1729 107.548 38.8713 107.651 38.5072 107.651H37.3714ZM37.8279 104.168V105.426H38.2953C38.5452 105.426 38.7418 105.366 38.8849 105.247C39.028 105.125 39.0995 104.955 39.0995 104.736C39.0995 104.357 38.8505 104.168 38.3523 104.168H37.8279ZM37.8279 105.836V107.238H38.4474C38.7155 107.238 38.9229 107.175 39.0697 107.048C39.2182 106.921 39.2925 106.747 39.2925 106.526C39.2925 106.066 38.9791 105.836 38.3523 105.836H37.8279ZM40.5629 104.162C40.4832 104.162 40.4153 104.135 40.3591 104.081C40.303 104.027 40.2749 103.958 40.2749 103.874C40.2749 103.791 40.303 103.722 40.3591 103.668C40.4153 103.612 40.4832 103.584 40.5629 103.584C40.6444 103.584 40.7133 103.612 40.7694 103.668C40.8274 103.722 40.8564 103.791 40.8564 103.874C40.8564 103.954 40.8274 104.022 40.7694 104.078C40.7133 104.134 40.6444 104.162 40.5629 104.162ZM40.7803 107.651H40.3347V104.869H40.7803V107.651ZM42.6784 107.717C42.2672 107.717 41.9384 107.587 41.6921 107.328C41.4475 107.067 41.3252 106.722 41.3252 106.293C41.3252 105.825 41.453 105.46 41.7084 105.198C41.9638 104.935 42.3089 104.804 42.7436 104.804C43.1584 104.804 43.4818 104.931 43.7137 105.187C43.9473 105.442 44.0642 105.796 44.0642 106.249C44.0642 106.693 43.9383 107.049 43.6865 107.317C43.4365 107.583 43.1005 107.717 42.6784 107.717ZM42.711 105.179C42.4248 105.179 42.1984 105.277 42.0317 105.472C41.8651 105.666 41.7817 105.934 41.7817 106.276C41.7817 106.606 41.866 106.866 42.0344 107.056C42.2029 107.247 42.4284 107.342 42.711 107.342C42.999 107.342 43.22 107.248 43.374 107.062C43.5298 106.875 43.6077 106.61 43.6077 106.266C43.6077 105.918 43.5298 105.65 43.374 105.461C43.22 105.273 42.999 105.179 42.711 105.179ZM46.984 107.651H46.5383V107.179H46.5275C46.321 107.537 46.0021 107.717 45.571 107.717C45.2214 107.717 44.9415 107.592 44.7314 107.344C44.5231 107.094 44.4189 106.755 44.4189 106.325C44.4189 105.865 44.5349 105.497 44.7667 105.219C44.9986 104.942 45.3075 104.804 45.6933 104.804C46.0755 104.804 46.3536 104.954 46.5275 105.255H46.5383V103.532H46.984V107.651ZM46.5383 106.393V105.983C46.5383 105.758 46.4641 105.568 46.3155 105.412C46.167 105.257 45.9786 105.179 45.7504 105.179C45.4786 105.179 45.2649 105.278 45.1091 105.478C44.9533 105.677 44.8754 105.952 44.8754 106.304C44.8754 106.624 44.9497 106.878 45.0982 107.064C45.2486 107.249 45.4497 107.342 45.7014 107.342C45.9496 107.342 46.1507 107.252 46.3047 107.073C46.4604 106.893 46.5383 106.667 46.5383 106.393ZM47.9474 104.162C47.8677 104.162 47.7997 104.135 47.7436 104.081C47.6874 104.027 47.6593 103.958 47.6593 103.874C47.6593 103.791 47.6874 103.722 47.7436 103.668C47.7997 103.612 47.8677 103.584 47.9474 103.584C48.0289 103.584 48.0977 103.612 48.1539 103.668C48.2118 103.722 48.2408 103.791 48.2408 103.874C48.2408 103.954 48.2118 104.022 48.1539 104.078C48.0977 104.134 48.0289 104.162 47.9474 104.162ZM48.1647 107.651H47.7191V104.869H48.1647V107.651ZM51.0872 104.869L49.9786 107.651H49.5412L48.4869 104.869H48.976L49.6825 106.891C49.735 107.039 49.7676 107.169 49.7803 107.279H49.7911C49.8093 107.14 49.8382 107.014 49.8781 106.901L50.6172 104.869H51.0872ZM53.6375 106.372H51.673C51.6802 106.681 51.7635 106.92 51.9229 107.089C52.0824 107.257 52.3015 107.342 52.5805 107.342C52.8939 107.342 53.1819 107.238 53.4446 107.032V107.45C53.2 107.628 52.8767 107.717 52.4745 107.717C52.0814 107.717 51.7726 107.591 51.548 107.339C51.3233 107.085 51.211 106.729 51.211 106.271C51.211 105.838 51.3333 105.486 51.5779 105.214C51.8242 104.941 52.1294 104.804 52.4936 104.804C52.8577 104.804 53.1393 104.921 53.3386 105.157C53.5379 105.392 53.6375 105.719 53.6375 106.138V106.372ZM53.181 105.994C53.1792 105.737 53.1167 105.536 52.9935 105.393C52.8721 105.25 52.7028 105.179 52.4854 105.179C52.2753 105.179 52.0968 105.254 51.9501 105.404C51.8034 105.555 51.7128 105.751 51.6784 105.994H53.181ZM55.5981 105.32C55.5202 105.26 55.4079 105.23 55.2612 105.23C55.071 105.23 54.9116 105.32 54.7829 105.499C54.6561 105.679 54.5927 105.923 54.5927 106.233V107.651H54.1471V104.869H54.5927V105.442H54.6036C54.667 105.247 54.7639 105.094 54.8944 104.986C55.0248 104.875 55.1706 104.82 55.3318 104.82C55.4478 104.82 55.5365 104.833 55.5981 104.858V105.32ZM55.7464 107.551V107.073C55.9891 107.252 56.2563 107.342 56.5479 107.342C56.9392 107.342 57.1348 107.211 57.1348 106.95C57.1348 106.876 57.1176 106.814 57.0832 106.763C57.0506 106.71 57.0053 106.664 56.9474 106.624C56.8912 106.584 56.8242 106.549 56.7463 106.518C56.6702 106.486 56.5878 106.452 56.499 106.418C56.3758 106.369 56.2671 106.32 56.173 106.271C56.0806 106.22 56.0027 106.164 55.9393 106.103C55.8777 106.039 55.8306 105.968 55.798 105.888C55.7672 105.808 55.7518 105.715 55.7518 105.608C55.7518 105.478 55.7817 105.363 55.8415 105.263C55.9012 105.162 55.9809 105.077 56.0806 105.01C56.1802 104.941 56.2934 104.89 56.4202 104.855C56.5488 104.821 56.6811 104.804 56.8169 104.804C57.0579 104.804 57.2734 104.845 57.4636 104.929V105.38C57.2589 105.246 57.0234 105.179 56.7571 105.179C56.6738 105.179 56.5986 105.189 56.5316 105.209C56.4646 105.227 56.4066 105.253 56.3577 105.287C56.3106 105.322 56.2735 105.363 56.2463 105.412C56.221 105.46 56.2083 105.512 56.2083 105.57C56.2083 105.642 56.221 105.703 56.2463 105.752C56.2735 105.801 56.3124 105.844 56.3632 105.882C56.4139 105.921 56.4755 105.955 56.5479 105.986C56.6204 106.017 56.7028 106.05 56.7952 106.086C56.9184 106.133 57.0289 106.182 57.1267 106.233C57.2245 106.282 57.3078 106.338 57.3767 106.401C57.4455 106.463 57.498 106.535 57.5343 106.616C57.5723 106.698 57.5913 106.795 57.5913 106.907C57.5913 107.045 57.5605 107.164 57.4989 107.266C57.4392 107.367 57.3586 107.451 57.2571 107.518C57.1557 107.585 57.0388 107.635 56.9066 107.668C56.7744 107.7 56.6358 107.717 56.4909 107.717C56.2047 107.717 55.9565 107.661 55.7464 107.551ZM58.3401 104.162C58.2604 104.162 58.1924 104.135 58.1363 104.081C58.0801 104.027 58.0521 103.958 58.0521 103.874C58.0521 103.791 58.0801 103.722 58.1363 103.668C58.1924 103.612 58.2604 103.584 58.3401 103.584C58.4216 103.584 58.4904 103.612 58.5466 103.668C58.6045 103.722 58.6335 103.791 58.6335 103.874C58.6335 103.954 58.6045 104.022 58.5466 104.078C58.4904 104.134 58.4216 104.162 58.3401 104.162ZM58.5574 107.651H58.1118V104.869H58.5574V107.651ZM60.5833 107.624C60.4782 107.682 60.3396 107.711 60.1675 107.711C59.6803 107.711 59.4366 107.439 59.4366 106.896V105.249H58.9584V104.869H59.4366V104.19L59.8822 104.046V104.869H60.5833V105.249H59.8822V106.817C59.8822 107.004 59.9139 107.137 59.9773 107.217C60.0407 107.296 60.1458 107.336 60.2925 107.336C60.4048 107.336 60.5018 107.305 60.5833 107.244V107.624ZM63.2259 104.869L61.9461 108.097C61.7179 108.673 61.3972 108.961 60.9842 108.961C60.8683 108.961 60.7714 108.949 60.6935 108.926V108.526C60.7895 108.559 60.8774 108.575 60.9571 108.575C61.1817 108.575 61.3501 108.441 61.4625 108.173L61.6853 107.646L60.5984 104.869H61.0929L61.8456 107.01C61.8546 107.037 61.8737 107.108 61.9026 107.222H61.9189C61.928 107.179 61.9461 107.11 61.9733 107.016L62.764 104.869H63.2259ZM66.8917 107.651H66.4461V107.217H66.4352C66.2414 107.55 65.9561 107.717 65.5793 107.717C65.3022 107.717 65.0848 107.643 64.9272 107.496C64.7714 107.35 64.6935 107.155 64.6935 106.912C64.6935 106.392 64.9997 106.09 65.6119 106.005L66.4461 105.888C66.4461 105.415 66.255 105.179 65.8728 105.179C65.5377 105.179 65.2351 105.293 64.9652 105.521V105.065C65.2388 104.891 65.554 104.804 65.9108 104.804C66.5648 104.804 66.8917 105.15 66.8917 105.842V107.651ZM66.4461 106.244L65.775 106.336C65.5685 106.365 65.4127 106.417 65.3076 106.491C65.2025 106.564 65.15 106.693 65.15 106.88C65.15 107.016 65.198 107.127 65.294 107.214C65.3918 107.299 65.5214 107.342 65.6826 107.342C65.9036 107.342 66.0856 107.265 66.2287 107.111C66.3736 106.955 66.4461 106.758 66.4461 106.521V106.244ZM69.874 107.651H69.4284V106.065C69.4284 105.474 69.2128 105.179 68.7817 105.179C68.5589 105.179 68.3741 105.263 68.2274 105.431C68.0825 105.598 68.01 105.809 68.01 106.065V107.651H67.5644V104.869H68.01V105.331H68.0209C68.231 104.979 68.5353 104.804 68.9339 104.804C69.2382 104.804 69.471 104.902 69.6322 105.1C69.7934 105.296 69.874 105.579 69.874 105.95V107.651ZM72.9242 107.651H72.4786V107.179H72.4677C72.2612 107.537 71.9424 107.717 71.5113 107.717C71.1617 107.717 70.8818 107.592 70.6717 107.344C70.4633 107.094 70.3592 106.755 70.3592 106.325C70.3592 105.865 70.4751 105.497 70.707 105.219C70.9388 104.942 71.2477 104.804 71.6335 104.804C72.0158 104.804 72.2938 104.954 72.4677 105.255H72.4786V103.532H72.9242V107.651ZM72.4786 106.393V105.983C72.4786 105.758 72.4043 105.568 72.2558 105.412C72.1072 105.257 71.9188 105.179 71.6906 105.179C71.4189 105.179 71.2051 105.278 71.0493 105.478C70.8936 105.677 70.8157 105.952 70.8157 106.304C70.8157 106.624 70.8899 106.878 71.0385 107.064C71.1888 107.249 71.3899 107.342 71.6417 107.342C71.8899 107.342 72.0909 107.252 72.2449 107.073C72.4007 106.893 72.4786 106.667 72.4786 106.393ZM75.0793 107.651V103.755H76.1879C76.5248 103.755 76.792 103.837 76.9895 104.002C77.1869 104.167 77.2856 104.382 77.2856 104.646C77.2856 104.867 77.2258 105.059 77.1063 105.222C76.9867 105.385 76.8219 105.501 76.6118 105.57V105.581C76.8744 105.612 77.0846 105.711 77.2422 105.88C77.3997 106.046 77.4785 106.264 77.4785 106.532C77.4785 106.865 77.359 107.135 77.1199 107.342C76.8808 107.548 76.5792 107.651 76.2151 107.651H75.0793ZM75.5358 104.168V105.426H76.0031C76.2531 105.426 76.4496 105.366 76.5927 105.247C76.7358 105.125 76.8074 104.955 76.8074 104.736C76.8074 104.357 76.5583 104.168 76.0602 104.168H75.5358ZM75.5358 105.836V107.238H76.1553C76.4234 107.238 76.6308 107.175 76.7775 107.048C76.9261 106.921 77.0003 106.747 77.0003 106.526C77.0003 106.066 76.6869 105.836 76.0602 105.836H75.5358ZM78.2708 104.162C78.1911 104.162 78.1231 104.135 78.067 104.081C78.0108 104.027 77.9827 103.958 77.9827 103.874C77.9827 103.791 78.0108 103.722 78.067 103.668C78.1231 103.612 78.1911 103.584 78.2708 103.584C78.3523 103.584 78.4211 103.612 78.4773 103.668C78.5352 103.722 78.5642 103.791 78.5642 103.874C78.5642 103.954 78.5352 104.022 78.4773 104.078C78.4211 104.134 78.3523 104.162 78.2708 104.162ZM78.4881 107.651H78.0425V104.869H78.4881V107.651ZM80.3863 107.717C79.9751 107.717 79.6463 107.587 79.3999 107.328C79.1554 107.067 79.0331 106.722 79.0331 106.293C79.0331 105.825 79.1608 105.46 79.4162 105.198C79.6716 104.935 80.0167 104.804 80.4515 104.804C80.8663 104.804 81.1896 104.931 81.4215 105.187C81.6552 105.442 81.772 105.796 81.772 106.249C81.772 106.693 81.6461 107.049 81.3943 107.317C81.1444 107.583 80.8083 107.717 80.3863 107.717ZM80.4189 105.179C80.1327 105.179 79.9062 105.277 79.7396 105.472C79.5729 105.666 79.4896 105.934 79.4896 106.276C79.4896 106.606 79.5738 106.866 79.7423 107.056C79.9108 107.247 80.1363 107.342 80.4189 107.342C80.7069 107.342 80.9279 107.248 81.0819 107.062C81.2377 106.875 81.3155 106.61 81.3155 106.266C81.3155 105.918 81.2377 105.65 81.0819 105.461C80.9279 105.273 80.7069 105.179 80.4189 105.179ZM83.6077 107.624C83.5026 107.682 83.364 107.711 83.1919 107.711C82.7046 107.711 82.461 107.439 82.461 106.896V105.249H81.9828V104.869H82.461V104.19L82.9066 104.046V104.869H83.6077V105.249H82.9066V106.817C82.9066 107.004 82.9383 107.137 83.0017 107.217C83.0651 107.296 83.1702 107.336 83.3169 107.336C83.4292 107.336 83.5261 107.305 83.6077 107.244V107.624ZM86.272 106.372H84.3075C84.3147 106.681 84.3981 106.92 84.5575 107.089C84.7169 107.257 84.9361 107.342 85.215 107.342C85.5284 107.342 85.8164 107.238 86.0791 107.032V107.45C85.8346 107.628 85.5112 107.717 85.1091 107.717C84.716 107.717 84.4071 107.591 84.1825 107.339C83.9579 107.085 83.8456 106.729 83.8456 106.271C83.8456 105.838 83.9678 105.486 84.2124 105.214C84.4588 104.941 84.764 104.804 85.1281 104.804C85.4922 104.804 85.7739 104.921 85.9731 105.157C86.1724 105.392 86.272 105.719 86.272 106.138V106.372ZM85.8155 105.994C85.8137 105.737 85.7512 105.536 85.6281 105.393C85.5067 105.25 85.3373 105.179 85.1199 105.179C84.9098 105.179 84.7314 105.254 84.5847 105.404C84.4379 105.555 84.3473 105.751 84.3129 105.994H85.8155ZM88.6783 107.524C88.4645 107.652 88.2109 107.717 87.9174 107.717C87.5207 107.717 87.2001 107.588 86.9556 107.331C86.7128 107.072 86.5915 106.737 86.5915 106.325C86.5915 105.867 86.7228 105.499 86.9855 105.222C87.2481 104.943 87.5986 104.804 88.037 104.804C88.2816 104.804 88.4971 104.849 88.6837 104.94V105.396C88.4772 105.251 88.2562 105.179 88.0207 105.179C87.7363 105.179 87.5026 105.281 87.3197 105.486C87.1385 105.689 87.0479 105.956 87.0479 106.287C87.0479 106.613 87.1331 106.871 87.3034 107.059C87.4755 107.247 87.7055 107.342 87.9935 107.342C88.2363 107.342 88.4645 107.261 88.6783 107.1V107.524ZM91.4948 107.651H91.0492V106.048C91.0492 105.469 90.8336 105.179 90.4025 105.179C90.1851 105.179 90.0021 105.263 89.8536 105.431C89.7051 105.598 89.6308 105.813 89.6308 106.075V107.651H89.1852V103.532H89.6308V105.331H89.6417C89.8554 104.979 90.1597 104.804 90.5546 104.804C91.1814 104.804 91.4948 105.181 91.4948 105.937V107.651ZM94.4798 107.651H94.0342V106.065C94.0342 105.474 93.8186 105.179 93.3875 105.179C93.1647 105.179 92.9799 105.263 92.8332 105.431C92.6883 105.598 92.6158 105.809 92.6158 106.065V107.651H92.1702V104.869H92.6158V105.331H92.6267C92.8368 104.979 93.1411 104.804 93.5396 104.804C93.844 104.804 94.0767 104.902 94.238 105.1C94.3992 105.296 94.4798 105.579 94.4798 105.95V107.651ZM96.3181 107.717C95.9069 107.717 95.5781 107.587 95.3318 107.328C95.0872 107.067 94.965 106.722 94.965 106.293C94.965 105.825 95.0927 105.46 95.3481 105.198C95.6035 104.935 95.9486 104.804 96.3833 104.804C96.7982 104.804 97.1215 104.931 97.3534 105.187C97.5871 105.442 97.7039 105.796 97.7039 106.249C97.7039 106.693 97.578 107.049 97.3262 107.317C97.0762 107.583 96.7402 107.717 96.3181 107.717ZM96.3507 105.179C96.0645 105.179 95.8381 105.277 95.6714 105.472C95.5048 105.666 95.4215 105.934 95.4215 106.276C95.4215 106.606 95.5057 106.866 95.6742 107.056C95.8426 107.247 96.0681 107.342 96.3507 107.342C96.6388 107.342 96.8598 107.248 97.0137 107.062C97.1695 106.875 97.2474 106.61 97.2474 106.266C97.2474 105.918 97.1695 105.65 97.0137 105.461C96.8598 105.273 96.6388 105.179 96.3507 105.179ZM98.6945 107.651H98.2489V103.532H98.6945V107.651ZM100.593 107.717C100.181 107.717 99.8526 107.587 99.6063 107.328C99.3617 107.067 99.2394 106.722 99.2394 106.293C99.2394 105.825 99.3671 105.46 99.6226 105.198C99.878 104.935 100.223 104.804 100.658 104.804C101.073 104.804 101.396 104.931 101.628 105.187C101.862 105.442 101.978 105.796 101.978 106.249C101.978 106.693 101.852 107.049 101.601 107.317C101.351 107.583 101.015 107.717 100.593 107.717ZM100.625 105.179C100.339 105.179 100.113 105.277 99.9459 105.472C99.7792 105.666 99.6959 105.934 99.6959 106.276C99.6959 106.606 99.7802 106.866 99.9486 107.056C100.117 107.247 100.343 107.342 100.625 107.342C100.913 107.342 101.134 107.248 101.288 107.062C101.444 106.875 101.522 106.61 101.522 106.266C101.522 105.918 101.444 105.65 101.288 105.461C101.134 105.273 100.913 105.179 100.625 105.179ZM104.898 107.429C104.898 108.45 104.409 108.961 103.431 108.961C103.087 108.961 102.786 108.896 102.529 108.765V108.32C102.842 108.494 103.141 108.581 103.425 108.581C104.11 108.581 104.453 108.217 104.453 107.488V107.184H104.442C104.23 107.539 103.911 107.717 103.485 107.717C103.139 107.717 102.86 107.593 102.648 107.347C102.438 107.099 102.333 106.766 102.333 106.35C102.333 105.877 102.446 105.501 102.673 105.222C102.901 104.943 103.213 104.804 103.607 104.804C103.982 104.804 104.261 104.954 104.442 105.255H104.453V104.869H104.898V107.429ZM104.453 106.393V105.983C104.453 105.762 104.377 105.573 104.227 105.415C104.078 105.258 103.893 105.179 103.67 105.179C103.395 105.179 103.179 105.279 103.023 105.48C102.867 105.68 102.79 105.959 102.79 106.32C102.79 106.63 102.864 106.878 103.012 107.064C103.163 107.249 103.361 107.342 103.607 107.342C103.857 107.342 104.06 107.253 104.216 107.075C104.374 106.898 104.453 106.67 104.453 106.393ZM107.848 104.869L106.568 108.097C106.34 108.673 106.019 108.961 105.606 108.961C105.49 108.961 105.393 108.949 105.315 108.926V108.526C105.411 108.559 105.499 108.575 105.579 108.575C105.804 108.575 105.972 108.441 106.084 108.173L106.307 107.646L105.22 104.869H105.715L106.467 107.01C106.477 107.037 106.496 107.108 106.525 107.222H106.541C106.55 107.179 106.568 107.11 106.595 107.016L107.386 104.869H107.848Z" fill="white"/>
<rect x="37.2952" y="88.1602" width="69.5601" height="1.85493" fill="white"/>
</g>
</g>
<defs>
<filter id="filter0_d_780_1368" x="9.72748e-05" y="-0.000391006" width="144.149" height="144.149" filterUnits="userSpaceOnUse" color-interpolation-filters="sRGB">
<feFlood flood-opacity="0" result="BackgroundImageFix"/>
<feColorMatrix in="SourceAlpha" type="matrix" values="0 0 0 0 0 0 0 0 0 0 0 0 0 0 0 0 0 0 127 0" result="hardAlpha"/>
<feOffset dy="2"/>
<feGaussianBlur stdDeviation="10.3"/>
<feComposite in2="hardAlpha" operator="out"/>
<feColorMatrix type="matrix" values="0 0 0 0 0.403922 0 0 0 0 0.882353 0 0 0 0 0.937255 0 0 0 0.58 0"/>
<feBlend mode="normal" in2="BackgroundImageFix" result="effect1_dropShadow_780_1368"/>
<feBlend mode="normal" in="SourceGraphic" in2="effect1_dropShadow_780_1368" result="shape"/>
</filter>
<clipPath id="clip0_780_1368">
<rect width="102.949" height="102.949" fill="white" transform="translate(20.6001 18.5996)"/>
</clipPath>
</defs>
</svg>
